<svg width="307" height="74" viewBox="0 0 307 74" fill="none" xmlns="http://www.w3.org/2000/svg">
<path d="M25.4 2H39.45L64.9 72H51.95L47.45 59.6H17.45L12.95 72H2.83122e-07L25.4 2ZM21.9 47.4H42.95L32.4 18.55L21.9 47.4ZM74.7891 72V2H86.9891V72H74.7891ZM168.132 73.3C163.899 73.3 160.082 72.3 156.682 70.3C153.282 68.3 150.582 65.6167 148.582 62.25C146.582 58.85 145.582 55.0833 145.582 50.95H157.782C157.782 52.8167 158.215 54.5167 159.082 56.05C159.982 57.5833 161.215 58.8167 162.782 59.75C164.349 60.65 166.132 61.1 168.132 61.1C169.965 61.1 171.665 60.65 173.232 59.75C174.832 58.8167 176.115 57.5833 177.082 56.05C178.049 54.5167 178.532 52.8167 178.532 50.95C178.532 48.5167 177.882 46.5 176.582 44.9C175.282 43.2667 173.465 42.05 171.132 41.25C168.832 40.45 166.149 40.05 163.082 40.05V30.65C167.215 30.65 170.482 29.8667 172.882 28.3C175.315 26.7333 176.532 24.4333 176.532 21.4C176.532 19.8333 176.132 18.4 175.332 17.1C174.532 15.8 173.465 14.7667 172.132 14C170.832 13.2 169.399 12.8 167.832 12.8C166.232 12.8 164.682 13.2 163.182 14C161.682 14.7667 160.449 15.8 159.482 17.1C158.549 18.4 158.082 19.8333 158.082 21.4H145.882C145.882 18.5333 146.465 15.85 147.632 13.35C148.799 10.8167 150.399 8.6 152.432 6.69999C154.499 4.8 156.832 3.31666 159.432 2.24999C162.065 1.15 164.815 0.599995 167.682 0.599995C171.449 0.599995 174.932 1.53333 178.132 3.4C181.332 5.26666 183.899 7.76666 185.832 10.9C187.765 14.0333 188.732 17.5333 188.732 21.4C188.732 24.1 188.099 26.75 186.832 29.35C185.565 31.95 183.765 33.7833 181.432 34.85C183.465 35.5833 185.165 36.8167 186.532 38.55C187.899 40.25 188.932 42.2 189.632 44.4C190.365 46.5667 190.732 48.75 190.732 50.95C190.732 55.05 189.699 58.8 187.632 62.2C185.565 65.5667 182.815 68.2667 179.382 70.3C175.982 72.3 172.232 73.3 168.132 73.3ZM220.854 73.3C216.387 73.3 212.287 72.1833 208.554 69.95C204.821 67.7167 201.837 64.7333 199.604 61C197.371 57.2667 196.254 53.1333 196.254 48.6C196.254 46.2667 196.521 44.1 197.054 42.1C197.621 40.1 198.487 38.0833 199.654 36.05L219.254 2H233.404L220.254 24.75C222.954 24.55 225.554 24.7833 228.054 25.45C230.554 26.1167 232.871 27.1667 235.004 28.6C237.137 30.0333 239.004 31.7667 240.604 33.8C242.204 35.8333 243.437 38.1 244.304 40.6C245.204 43.1 245.654 45.7667 245.654 48.6C245.654 52 245.004 55.1833 243.704 58.15C242.437 61.1167 240.671 63.75 238.404 66.05C236.137 68.3167 233.504 70.1 230.504 71.4C227.504 72.6667 224.287 73.3 220.854 73.3ZM220.854 61.1C223.287 61.1 225.454 60.5167 227.354 59.35C229.254 58.15 230.737 56.6 231.804 54.7C232.904 52.8 233.454 50.7833 233.454 48.65C233.454 46.35 232.904 44.25 231.804 42.35C230.704 40.45 229.204 38.9333 227.304 37.8C225.437 36.6667 223.321 36.1 220.954 36.1C218.521 36.1 216.354 36.7 214.454 37.9C212.587 39.0667 211.121 40.6 210.054 42.5C208.987 44.4 208.454 46.45 208.454 48.65C208.454 51.0167 209.037 53.1333 210.204 55C211.371 56.8667 212.887 58.35 214.754 59.45C216.654 60.55 218.687 61.1 220.854 61.1ZM278.887 73.3C274.82 73.3 271.12 72.3667 267.787 70.5C264.453 68.6 261.57 65.9833 259.137 62.65C256.737 59.3167 254.887 55.4667 253.587 51.1C252.287 46.7 251.637 42 251.637 37C251.637 32 252.287 27.3167 253.587 22.95C254.887 18.55 256.737 14.6833 259.137 11.35C261.57 8.01666 264.453 5.41666 267.787 3.55C271.12 1.64999 274.82 0.699994 278.887 0.699994C282.953 0.699994 286.653 1.64999 289.987 3.55C293.32 5.41666 296.17 8.01666 298.537 11.35C300.937 14.6833 302.787 18.55 304.087 22.95C305.42 27.3167 306.087 32 306.087 37C306.087 42 305.42 46.7 304.087 51.1C302.787 55.4667 300.937 59.3167 298.537 62.65C296.17 65.9833 293.32 68.6 289.987 70.5C286.653 72.3667 282.953 73.3 278.887 73.3ZM278.887 61.1C282.453 61.1 285.403 59.9667 287.737 57.7C290.07 55.4333 291.803 52.4667 292.937 48.8C294.07 45.1333 294.637 41.2 294.637 37C294.637 32.5667 294.037 28.5333 292.837 24.9C291.637 21.2333 289.87 18.3167 287.537 16.15C285.203 13.9833 282.32 12.9 278.887 12.9C276.187 12.9 273.837 13.5667 271.837 14.9C269.87 16.2 268.237 17.9833 266.937 20.25C265.637 22.5167 264.67 25.1 264.037 28C263.403 30.8667 263.087 33.8667 263.087 37C263.087 41.1667 263.653 45.1 264.787 48.8C265.953 52.4667 267.703 55.4333 270.037 57.7C272.403 59.9667 275.353 61.1 278.887 61.1Z" fill="white"/>
</svg>
