<svg width="321" height="287" viewBox="0 0 321 287" fill="none" xmlns="http://www.w3.org/2000/svg">
<path d="M217.768 0H69.7721C67.4627 0 66.0193 2.5 67.174 4.5L91.134 46C91.6699 46.9282 92.6603 47.5 93.7321 47.5H237.223C239.533 47.5 240.976 50 239.821 52L168.866 174.898C168.33 175.826 168.33 176.97 168.866 177.898L191.73 217.5C192.885 219.5 195.772 219.5 196.926 217.5L270.134 90.7006C270.67 89.7724 270.67 88.6288 270.134 87.7006L220.366 1.5C219.83 0.571797 218.84 0 217.768 0Z" fill="#FFFEFE"/>
<path d="M73.315 282.545L0.880517 158.741C0.336139 157.811 0.332816 156.66 0.871811 155.726L48.634 73C49.1699 72.0718 50.1603 71.5 51.2321 71.5H196.207C198.517 71.5 199.96 74 198.805 76L176.866 114C176.33 114.928 175.34 115.5 174.268 115.5H31.7543C29.4449 115.5 28.0015 118 29.1562 120L99.8816 242.5C100.418 243.428 100.418 244.572 99.8816 245.5L78.5024 282.53C77.3516 284.523 74.4773 284.532 73.315 282.545Z" fill="#FFFEFE"/>
<path d="M143.076 269L68.5981 140C67.4434 138 68.8867 135.5 71.1962 135.5H116.425C117.497 135.5 118.487 136.072 119.023 137L191.48 262.5C192.635 264.5 195.522 264.5 196.677 262.5L269.134 137C269.67 136.072 270.66 135.5 271.732 135.5H315.246C317.556 135.5 318.999 138 317.844 140L243.366 269C242.83 269.928 241.84 270.5 240.768 270.5H145.674C144.603 270.5 143.612 269.928 143.076 269Z" fill="#FFFEFE"/>
</svg>
