<svg width="249" height="14" viewBox="0 0 249 14" fill="none" xmlns="http://www.w3.org/2000/svg">
<path d="M7.35389 11.3347V13H0.583418V1.02427H7.35389V2.68049H2.53994V5.93832H7.05359V7.57634H2.53994V11.3347H7.35389ZM14.7392 6.82103L18.7706 13H16.5137L13.5198 8.10415L10.4986 13H8.40554L12.3732 6.79373L8.65124 1.02427H10.8353L13.6017 5.55612L16.3681 1.02427H18.4794L14.7392 6.82103ZM22.3505 2.66228V6.87563H23.3879C24.395 6.87563 25.1321 6.70273 25.5992 6.35693C26.0664 6.00506 26.2999 5.47118 26.2999 4.75531C26.2999 4.03337 26.0876 3.50556 25.6629 3.17189C25.2443 2.83215 24.5921 2.66228 23.7064 2.66228H22.3505ZM23.8429 1.02427C25.3293 1.02427 26.4455 1.33064 27.1917 1.94338C27.944 2.55005 28.3202 3.46613 28.3202 4.69161C28.3202 5.91102 27.9106 6.8544 27.0916 7.52174C26.2787 8.18908 25.1139 8.52275 23.5972 8.52275H22.3505V13H20.394V1.02427H23.8429ZM37.4828 11.3347V13H30.7123V1.02427H37.4828V2.68049H32.6688V5.93832H37.1825V7.57634H32.6688V11.3347H37.4828ZM42.038 8.21335V13H40.0815V1.02427H43.4576C44.9986 1.02427 46.1421 1.31244 46.8883 1.88878C47.6345 2.46512 48.0077 3.34176 48.0077 4.51871C48.0077 6.00506 47.2311 7.06673 45.678 7.70374L49.0633 13H46.8337L43.9672 8.21335H42.038ZM42.038 2.68049V6.59353H43.3939C44.2918 6.59353 44.947 6.42973 45.3595 6.10212C45.7781 5.76845 45.9874 5.26491 45.9874 4.59151C45.9874 3.9181 45.769 3.43276 45.3322 3.13549C44.9015 2.83215 44.2341 2.68049 43.3302 2.68049H42.038ZM54.9356 2.70779V13H52.979V2.70779H49.4573V1.02427H58.4573V2.70779H54.9356ZM62.2528 13H60.2963V1.02427H62.2528V13ZM71.1173 7.26694C71.912 7.86754 72.3094 8.69869 72.3094 9.76036C72.3094 10.816 71.9272 11.6471 71.1628 12.2538C70.3984 12.8605 69.3367 13.1638 67.9778 13.1638C66.6188 13.1638 65.5086 12.9545 64.6471 12.5359V10.6795C65.8119 11.2315 66.9646 11.5076 68.1052 11.5076C68.8635 11.5076 69.4308 11.365 69.8069 11.0799C70.183 10.7887 70.3711 10.4034 70.3711 9.92417C70.3711 9.44489 70.2043 9.05359 69.8706 8.75025C69.5369 8.44085 68.8271 8.06775 67.7412 7.63094C66.6552 7.18807 65.8908 6.6815 65.4479 6.11122C65.0051 5.54095 64.7836 4.86148 64.7836 4.0728C64.7836 3.07179 65.1385 2.28615 65.8483 1.71587C66.5642 1.13953 67.5046 0.851364 68.6694 0.851364C69.8342 0.851364 70.9899 1.10313 72.1365 1.60667L71.5086 3.20829C70.4348 2.75935 69.4854 2.53488 68.6603 2.53488C68.0415 2.53488 67.5652 2.67138 67.2316 2.94439C66.8979 3.21132 66.7311 3.57533 66.7311 4.0364C66.7311 4.35187 66.7948 4.62184 66.9222 4.84631C67.0678 5.07685 67.2862 5.28615 67.5774 5.47422C67.8746 5.66229 68.4358 5.92922 69.2609 6.27503C70.092 6.62083 70.7108 6.95147 71.1173 7.26694ZM81.393 11.3347V13H74.6225V1.02427H81.393V2.68049H76.579V5.93832H81.0927V7.57634H76.579V11.3347H81.393ZM90.7639 8.08595V13H88.8256V1.02427H95.5779V2.68049H90.7639V6.42063H95.2776V8.08595H90.7639ZM99.7118 8.21335V13H97.7553V1.02427H101.131C102.672 1.02427 103.816 1.31244 104.562 1.88878C105.308 2.46512 105.681 3.34176 105.681 4.51871C105.681 6.00506 104.905 7.06673 103.352 7.70374L106.737 13H104.508L101.641 8.21335H99.7118ZM99.7118 2.68049V6.59353H101.068C101.966 6.59353 102.621 6.42973 103.033 6.10212C103.452 5.76845 103.661 5.26491 103.661 4.59151C103.661 3.9181 103.443 3.43276 103.006 3.13549C102.575 2.83215 101.908 2.68049 101.004 2.68049H99.7118ZM117.023 6.99393C117.023 5.51972 116.729 4.40647 116.14 3.6542C115.552 2.89585 114.675 2.51668 113.51 2.51668C112.345 2.51668 111.463 2.89585 110.862 3.6542C110.262 4.41254 109.961 5.52882 109.961 7.00303C109.961 8.47118 110.259 9.58746 110.853 10.3519C111.454 11.1102 112.336 11.4894 113.501 11.4894C115.849 11.4894 117.023 9.9909 117.023 6.99393ZM117.642 2.46208C118.618 3.53589 119.107 5.04651 119.107 6.99393C119.107 8.94135 118.618 10.458 117.642 11.544C116.671 12.6239 115.285 13.1638 113.483 13.1638C111.687 13.1638 110.304 12.6269 109.333 11.5531C108.369 10.4793 107.886 8.95349 107.886 6.97573C107.886 4.99798 108.372 3.48129 109.342 2.42568C110.313 1.37007 111.693 0.842264 113.483 0.842264C115.279 0.842264 116.665 1.3822 117.642 2.46208ZM123.454 7.17594V13H121.679V1.02427H124.436L127.758 10.5521H127.813L131.234 1.02427H134.001V13H132.117V7.07583C132.117 6.5905 132.132 5.84429 132.162 4.83721C132.193 3.82406 132.22 3.21739 132.244 3.01719H132.172L128.577 13H126.848L123.381 2.99899H123.317C123.408 4.48534 123.454 5.87765 123.454 7.17594ZM148.77 11.3347V13H141.999V1.02427H148.77V2.68049H143.956V5.93832H148.47V7.57634H143.956V11.3347H148.77ZM155.691 8.44085L158.185 1.02427H160.223L156.028 13H153.962L149.785 1.02427H151.796L154.299 8.46815C154.42 8.80789 154.554 9.24772 154.699 9.78766C154.845 10.3215 154.945 10.7553 155 11.089C155.072 10.6704 155.185 10.182 155.336 9.62386C155.494 9.06572 155.612 8.67139 155.691 8.44085ZM168.58 11.3347V13H161.81V1.02427H168.58V2.68049H163.767V5.93832H168.28V7.57634H163.767V11.3347H168.58ZM173.136 8.21335V13H171.179V1.02427H174.555C176.096 1.02427 177.24 1.31244 177.986 1.88878C178.732 2.46512 179.105 3.34176 179.105 4.51871C179.105 6.00506 178.329 7.06673 176.776 7.70374L180.161 13H177.931L175.065 8.21335H173.136ZM173.136 2.68049V6.59353H174.492C175.389 6.59353 176.045 6.42973 176.457 6.10212C176.876 5.76845 177.085 5.26491 177.085 4.59151C177.085 3.9181 176.867 3.43276 176.43 3.13549C175.999 2.83215 175.332 2.68049 174.428 2.68049H173.136ZM186.252 13H184.286V8.42265L180.318 1.02427H182.448L185.278 6.49343L188.117 1.02427H190.247L186.252 8.35895V13ZM206.177 13H204.093L202.901 9.67846H198.315L197.15 13H195.084L199.561 0.978766H201.691L206.177 13ZM198.888 7.98584H202.382C201.454 5.27401 200.941 3.7634 200.844 3.45399C200.747 3.14459 200.671 2.88069 200.617 2.66228C200.471 3.32356 200.256 4.05763 199.971 4.86451L198.888 7.98584ZM217.733 1.02427V13H215.33L209.443 3.46309H209.379L209.415 3.9909C209.494 4.96158 209.534 5.88979 209.534 6.77553V13H207.759V1.02427H210.134L216.004 10.5157H216.049C215.977 8.95652 215.94 7.88574 215.94 7.30334V1.02427H217.733ZM225.803 8.18605V6.50253H230.208V12.5177C229.504 12.7482 228.822 12.912 228.16 13.0091C227.499 13.1122 226.774 13.1638 225.985 13.1638C224.172 13.1638 222.773 12.6269 221.79 11.5531C220.808 10.4793 220.316 8.97169 220.316 7.03033C220.316 5.08898 220.868 3.57533 221.972 2.48938C223.083 1.39737 224.611 0.851364 226.559 0.851364C227.796 0.851364 228.979 1.09403 230.108 1.57937L229.425 3.20829C228.443 2.75935 227.469 2.53488 226.504 2.53488C225.23 2.53488 224.22 2.93529 223.474 3.7361C222.734 4.54297 222.364 5.65925 222.364 7.08493C222.364 8.50455 222.697 9.59656 223.365 10.361C224.032 11.1254 224.994 11.5076 226.249 11.5076C226.874 11.5076 227.554 11.4287 228.288 11.271V8.18605H225.803ZM240.115 13H233.089V1.02427H235.046V11.3256H240.115V13ZM248.948 11.3347V13H242.177V1.02427H248.948V2.68049H244.134V5.93832H248.647V7.57634H244.134V11.3347H248.948Z" fill="white"/>
</svg>
